<?xml version="1.0" encoding="UTF-8" standalone="no"?>
<!-- Created with Inkscape (http://www.inkscape.org/) -->

<svg
   xmlns:dc="http://purl.org/dc/elements/1.1/"
   xmlns:cc="http://creativecommons.org/ns#"
   xmlns:rdf="http://www.w3.org/1999/02/22-rdf-syntax-ns#"
   xmlns:svg="http://www.w3.org/2000/svg"
   xmlns="http://www.w3.org/2000/svg"
   xmlns:sodipodi="http://sodipodi.sourceforge.net/DTD/sodipodi-0.dtd"
   xmlns:inkscape="http://www.inkscape.org/namespaces/inkscape"
   width="32"
   height="32"
   viewBox="0 0 8.4666667 8.4666667"
   version="1.1"
   id="svg8"
   inkscape:version="0.92.3 (2405546, 2018-03-11)"
   sodipodi:docname="favicon.svg">
  <defs
     id="defs2" />
  <sodipodi:namedview
     id="base"
     pagecolor="#ffffff"
     bordercolor="#666666"
     borderopacity="1.0"
     inkscape:pageopacity="0.0"
     inkscape:pageshadow="2"
     inkscape:zoom="1.4142136"
     inkscape:cx="-28.835698"
     inkscape:cy="67.797362"
     inkscape:document-units="mm"
     inkscape:current-layer="layer1"
     showgrid="false"
     units="px"
     borderlayer="true"
     inkscape:pagecheckerboard="true"
     inkscape:showpageshadow="false"
     inkscape:window-width="1920"
     inkscape:window-height="1057"
     inkscape:window-x="1912"
     inkscape:window-y="-8"
     inkscape:window-maximized="1" />
  <metadata
     id="metadata5">
    <rdf:RDF>
      <cc:Work
         rdf:about="">
        <dc:format>image/svg+xml</dc:format>
        <dc:type
           rdf:resource="http://purl.org/dc/dcmitype/StillImage" />
        <dc:title></dc:title>
      </cc:Work>
    </rdf:RDF>
  </metadata>
  <g
     inkscape:label="レイヤー 1"
     inkscape:groupmode="layer"
     id="layer1"
     transform="translate(0,-288.53333)">
    <g
       aria-label="2"
       style="font-style:normal;font-variant:normal;font-weight:900;font-stretch:normal;font-size:7.76111126px;line-height:1.25;font-family:'noto sans cjk jp';-inkscape-font-specification:'noto sans cjk jp Heavy';letter-spacing:0px;word-spacing:0px;fill:#630b39;fill-opacity:1;stroke:#f7f9fd;stroke-width:0.1;stroke-miterlimit:4;stroke-dasharray:none;stroke-opacity:1"
       id="text1368">
      <path
         d="m 4.1101785,293.95754 v 1.4969 L 2.7995916,295.454 2.7984116,296.087 1.757,296.436 v -0.982 l -0.98925324,4.4e-4 1.65984704,-3.11506 0.056844,-0.10611 c 0.045475,-0.0834 0.068213,-0.16547 0.068213,-0.24632 0,-0.20464 -0.1200042,-0.30696 -0.3600125,-0.30696 -0.093477,0 -0.1755851,0.0354 -0.2463244,0.10611 -0.068213,0.0682 -0.1023193,0.14906 -0.1023193,0.24253 0,0.10611 0.045475,0.20212 0.1364258,0.28801 L 1.3172395,293.499 c -0.2779044,-0.17179 -0.49138546,-0.39033 -0.64044327,-0.6556 -0.1490578,-0.26527 -0.2235867,-0.55834 -0.2235867,-0.87919 0,-0.4977 0.17558504,-0.9234 0.52675511,-1.2771 C 1.2081451,290.45565 1.4669536,290.29907 1.757,290.218 v -0.633 l 1.042,-0.336 v 0.982 c 0.2712052,0.0832 0.5135177,0.23292 0.7275793,0.44853 0.3511701,0.35117 0.5267551,0.77814 0.5267551,1.28089 0,0.28801 -0.064423,0.55581 -0.1932699,0.8034 l -0.613916,1.19372 z"
         style="font-style:normal;font-variant:normal;font-weight:bold;font-stretch:normal;font-size:7.76111126px;font-family:'Bauhaus 93';-inkscape-font-specification:'Bauhaus 93 Bold';fill:#2097fb;fill-opacity:1;stroke:#f7f9fd;stroke-width:0.1;stroke-miterlimit:4;stroke-dasharray:none;stroke-opacity:1"
         id="path1435"
         inkscape:connector-curvature="0"
         sodipodi:nodetypes="cccccccccsscsccssccccccsccc" />
    </g>
    <g
       style="font-style:normal;font-variant:normal;font-weight:900;font-stretch:normal;font-size:4.23333311px;line-height:1.25;font-family:'noto sans cjk jp';-inkscape-font-specification:'noto sans cjk jp Heavy';letter-spacing:0px;word-spacing:0px;fill:#000000;fill-opacity:1;stroke:none;stroke-width:0.26458332"
       id="text1407" />
    <g
       aria-label="c"
       transform="scale(1.0033826,0.99662876)"
       style="font-style:normal;font-variant:normal;font-weight:900;font-stretch:normal;font-size:7.78647566px;line-height:1.25;font-family:'noto sans cjk jp';-inkscape-font-specification:'noto sans cjk jp Heavy';letter-spacing:0px;word-spacing:0px;fill:#630b39;fill-opacity:1;stroke:#f7f9fd;stroke-width:0.10032681;stroke-miterlimit:4;stroke-dasharray:none;stroke-opacity:1"
       id="text1368-7">
      <path
         d="m 6.6285782,293.59728 c -0.073834,0.0274 -0.1719495,0.0454 -0.3265176,0.0454 -0.5576252,0 -1.029072,-0.1939 -1.4143403,-0.58171 -0.3827337,-0.3878 -0.5741005,-0.86305 -0.5741005,-1.42574 0,-0.53481 0.1939015,-0.99232 0.5817044,-1.37252 0.387803,-0.3802 0.8529131,-0.5703 1.3953304,-0.5703 0.4739814,0 0.8922003,0.14954 1.2546567,0.44863 0.3624564,0.29909 0.5880412,0.68011 0.6767543,1.14395 l -1.4409543,0.0542 c -0.1241983,-0.16222 -0.2813473,-0.24384 -0.4714468,-0.24384 -0.1622182,0 -0.2952878,0.0532 -0.3992089,0.15969 -0.1039211,0.10645 -0.1558816,0.24079 -0.1558816,0.40301 0,0.16475 0.054495,0.30289 0.1634856,0.41442 0.111525,0.11152 0.2796505,0.16742 0.4142435,0.16728 0.070942,-7e-5 0.2027703,-0.0494 0.2962751,-0.1286 z"
         style="font-style:normal;font-variant:normal;font-weight:bold;font-stretch:normal;font-size:7.78647566px;font-family:'Bauhaus 93';-inkscape-font-specification:'Bauhaus 93 Bold';fill:#02457e;fill-opacity:1;stroke:#f7f9fd;stroke-width:0.10032681;stroke-miterlimit:4;stroke-dasharray:none;stroke-opacity:1"
         id="path1439"
         inkscape:connector-curvature="0"
         sodipodi:nodetypes="cscssscccscscscc" />
    </g>
    <g
       aria-label="d"
       transform="scale(1.0000082,0.99999183)"
       style="font-style:normal;font-variant:normal;font-weight:900;font-stretch:normal;font-size:7.76117373px;line-height:1.25;font-family:'noto sans cjk jp';-inkscape-font-specification:'noto sans cjk jp Heavy';letter-spacing:0px;word-spacing:0px;fill:#630b39;fill-opacity:1;stroke:#f7f9fd;stroke-width:0.10000081;stroke-miterlimit:4;stroke-dasharray:none;stroke-opacity:1"
       id="text1368-5">
      <path
         d="m 6.8669437,290.58637 1.4173632,-0.054 v 4.18829 c 0,0.57855 -0.1515854,1.04972 -0.4547563,1.41353 -0.1743232,0.20969 -0.3966485,0.37644 -0.6669759,0.50023 -0.2678009,0.1238 -0.543181,0.1857 -0.8261405,0.1857 -0.5633925,0 -1.0383602,-0.18948 -1.424903,-0.56845 -0.3865429,-0.37896 -0.5798143,-0.84382 -0.5798143,-1.39458 0,-0.53308 0.1920082,-0.99415 0.5760247,-1.38322 0.3840164,-0.38907 0.8387727,-0.58361 1.3642688,-0.58361 0.083372,0 0.2096648,0.008 0.3789351,0.0227 v 1.56133 c -0.1162155,-0.091 -0.2324025,-0.13642 -0.348618,-0.13642 -0.1465326,0 -0.2728538,0.0543 -0.3789636,0.16295 -0.1035834,0.10611 -0.1553751,0.23495 -0.1553751,0.38654 0,0.14653 0.054318,0.27286 0.1629544,0.37897 0.1086362,0.10358 0.238747,0.15537 0.3903324,0.15537 0.3638051,0 0.5457076,-0.25138 0.5457076,-0.75414 z"
         style="font-style:normal;font-variant:normal;font-weight:bold;font-stretch:normal;font-size:7.76117373px;font-family:'Bauhaus 93';-inkscape-font-specification:'Bauhaus 93 Bold';fill:#02457e;fill-opacity:1;stroke:#f7f9fd;stroke-width:0.10000081;stroke-miterlimit:4;stroke-dasharray:none;stroke-opacity:1"
         id="path1442"
         inkscape:connector-curvature="0"
         sodipodi:nodetypes="ccsccscscsccscscssc" />
    </g>
  </g>
</svg>
